<svg id="icon2" xmlns="http://www.w3.org/2000/svg" xmlns:xlink="http://www.w3.org/1999/xlink" viewBox="0 0 1024 1024"><defs><style>.cls-1{fill:#fff;}.cls-2{fill:url(#Unbenannter_Verlauf_23);}.cls-3{fill:none;stroke:#000;stroke-miterlimit:10;stroke-width:60px;}</style><radialGradient id="Unbenannter_Verlauf_23" cx="512" cy="512" r="390" gradientUnits="userSpaceOnUse"><stop offset="0" stop-color="#6464ff"/><stop offset="0.47" stop-color="#3232c8"/><stop offset="1"/></radialGradient></defs><title>icon</title><rect class="cls-1" x="122" y="122" width="780" height="780"/><path class="cls-2" d="M636.11,282.78a418.82,418.82,0,0,0-98.48,44.41,329.43,329.43,0,0,1,44.72-2.91c68.22,0,142.16,18.93,202.9,51.79A429.71,429.71,0,0,1,902,468.78V580.21c-32.58-60.15-81.21-110.49-140.46-142.57a418.86,418.86,0,0,0-101.09-38.27C730,452.72,779.84,537.69,801.06,609.14c29,97.34,22.14,200.68-17,292.86H712.84c42.88-82.48,53.94-179.14,28.11-266a418.89,418.89,0,0,0-44.41-98.49c11.44,86.84-13.42,182.21-48.88,247.73A429.84,429.84,0,0,1,554.91,902H443.73c60.11-32.58,110.4-81.18,142.46-140.4a418.72,418.72,0,0,0,38.28-101.09C571.11,730.09,486.15,779.9,414.7,801.12a429.57,429.57,0,0,1-122.93,18A434.42,434.42,0,0,1,122,784.23V713.36a368.2,368.2,0,0,0,169.56,41.69,337.18,337.18,0,0,0,96.1-13.83,419.08,419.08,0,0,0,98.49-44.41,329.64,329.64,0,0,1-44.72,2.91c-68.23,0-142.17-18.93-202.91-51.79A430,430,0,0,1,122,555.48V444.2c32.57,60,81.12,110.15,140.23,142.16a418.86,418.86,0,0,0,101.09,38.27c-69.57-53.35-119.39-138.32-140.61-209.77-29-97.34-22.14-200.68,17-292.86h71.2C268,204.51,257,301.22,282.72,388a414.47,414.47,0,0,0,44.41,98.49C315.69,399.68,340.55,304.31,376,238.79A429.84,429.84,0,0,1,468.76,122H579.93c-60.1,32.58-110.39,81.18-142.46,140.4A419.12,419.12,0,0,0,399.2,363.49C452.55,293.91,537.52,244.1,609,222.88a429.4,429.4,0,0,1,122.93-18A435.91,435.91,0,0,1,902,239.83v70.92A368.28,368.28,0,0,0,732.21,269,337.18,337.18,0,0,0,636.11,282.78Z"/><rect class="cls-3" x="122" y="122" width="780" height="780"/></svg>